<svg xmlns="http://www.w3.org/2000/svg" height="24" viewBox="0 96 960 960" fill="gray" width="24"><path d="m478.5 891 143.711-378H687l143.5 378H766l-33.61-96.5H578.5l-33 96.5h-67Zm120-152h112l-55.108-155.5H653.5l-55 155.5Zm-368 57.5L185 751l159.5-159.5Q315 559 292.731 523.696 270.462 488.393 254 450h64.941q14.559 28 30.327 50.194Q365.036 522.389 387.5 548q35.637-38.55 58.819-77.525Q469.5 431.5 484 387H136v-63h220.5v-63h63v63H640v63h-92.883q-16.617 55-44.609 107.688T433 593.5l75 76.5-24 65-96-96-157.5 157.5Z"/></svg>